<svg width="24" height="24" viewBox="0 0 24 24" fill="none" xmlns="http://www.w3.org/2000/svg">
<path d="M21.45 11.5H23V13.5H21.45C21 17.67 17.67 21 13.5 21.45V23H11.5V21.45C7.33 21 4 17.67 3.55 13.5H2V11.5H3.55C4 7.33 7.33 4 11.5 3.55V2H13.5V3.55C17.67 4 21 7.33 21.45 11.5ZM5.57 11.5H7V13.5H5.57C6 16.57 8.43 19 11.5 19.43V18H13.5V19.43C16.57 19 19 16.57 19.43 13.5H18V11.5H19.43C19 8.43 16.57 6 13.5 5.57V7H11.5V5.57C8.43 6 6 8.43 5.57 11.5ZM16.5 16.5H8.5V15.5C8.5 14.17 11.17 13.5 12.5 13.5C13.83 13.5 16.5 14.17 16.5 15.5V16.5ZM12.5 8.5C13.0304 8.5 13.5391 8.71071 13.9142 9.08579C14.2893 9.46086 14.5 9.96957 14.5 10.5C14.5 11.0304 14.2893 11.5391 13.9142 11.9142C13.5391 12.2893 13.0304 12.5 12.5 12.5C11.9696 12.5 11.4609 12.2893 11.0858 11.9142C10.7107 11.5391 10.5 11.0304 10.5 10.5C10.5 9.96957 10.7107 9.46086 11.0858 9.08579C11.4609 8.71071 11.9696 8.5 12.5 8.5V8.5Z" fill="white"/>
</svg>
