<svg width="24" height="24" viewBox="0 0 24 24" fill="none" xmlns="http://www.w3.org/2000/svg">
<path d="M14.117 14.711H6.84601L4.16901 17.723C4.05401 17.852 4.14601 18.056 4.31801 18.056H15.865C16.008 18.056 16.144 17.995 16.239 17.888L22.253 11.122C22.368 10.993 22.276 10.789 22.104 10.789H17.828L14.491 14.543C14.396 14.65 14.26 14.711 14.117 14.711Z" fill="#AAA4EC"/>
<path d="M19.682 5.944H8.13501C7.99201 5.944 7.85601 6.005 7.76101 6.112L1.74701 12.878C1.63201 13.007 1.72401 13.211 1.89601 13.211H13.443C13.586 13.211 13.722 13.15 13.817 13.043L19.831 6.277C19.946 6.148 19.854 5.944 19.682 5.944ZM7.89701 10.703L9.89701 8.453H13.68L11.68 10.703H7.89701Z" fill="#5548D9"/>
</svg>
