<svg width="245" height="160" viewBox="0 0 245 160" fill="none" xmlns="http://www.w3.org/2000/svg">
<path d="M38.9505 0H201.008C204.294 0 206.958 2.90299 206.958 6.47531V115.71C206.958 119.286 204.29 122.185 201.008 122.185H38.9505C35.6643 122.185 33 119.282 33 115.71V6.47531C33 2.89923 35.6677 0 38.9505 0Z" fill="white"/>
<path d="M38.9505 0.5H201.008C203.979 0.5 206.458 3.13831 206.458 6.47531V115.71C206.458 119.05 203.975 121.685 201.008 121.685H38.9505C35.9795 121.685 33.5 119.047 33.5 115.71V6.47531C33.5 3.13494 35.9826 0.5 38.9505 0.5Z" stroke="black" stroke-opacity="0.13"/>
<line x1="33" y1="48.1665" x2="206.958" y2="48.1665" stroke="black" stroke-opacity="0.13"/>
<rect x="45" y="63" width="140" height="9" rx="4.5" fill="#D9D9D9"/>
<rect x="45" y="80" width="79" height="9" rx="4.5" fill="#D9D9D9"/>
<path d="M149.628 26H86.3716C84.5095 26 83 27.567 83 29.5C83 31.433 84.5095 33 86.3716 33H149.628C151.49 33 153 31.433 153 29.5C153 27.567 151.49 26 149.628 26Z" fill="#CCCCCC"/>
<path d="M177.633 15H86.367C84.5075 15 83 16.567 83 18.5C83 20.433 84.5075 22 86.367 22H177.633C179.493 22 181 20.433 181 18.5C181 16.567 179.493 15 177.633 15Z" fill="#CCCCCC"/>
<path d="M72.1531 25.4174C73.38 17.859 68.2472 10.7371 60.6888 9.51018C53.1304 8.28327 46.0085 13.416 44.7816 20.9744C43.5547 28.5328 48.6874 35.6548 56.2458 36.8817C63.8042 38.1086 70.9262 32.9759 72.1531 25.4174Z" fill="url(#paint0_linear_4896_5336)"/>
<path d="M59.2462 16.6413L60.4615 19.9121C60.8087 20.8496 61.5518 21.5857 62.4893 21.9399L65.7601 23.1552C66.024 23.2524 66.024 23.6274 65.7601 23.7315L62.4893 24.9468C61.5518 25.294 60.8156 26.0371 60.4615 26.9746L59.2462 30.2454C59.149 30.5093 58.774 30.5093 58.6698 30.2454L57.4545 26.9746C57.1073 26.0371 56.3643 25.301 55.4268 24.9468L52.1559 23.7315C51.892 23.6343 51.892 23.2593 52.1559 23.1552L55.4268 21.9399C56.3643 21.5927 57.1004 20.8496 57.4545 19.9121L58.6698 16.6413C58.767 16.3774 59.142 16.3774 59.2462 16.6413Z" fill="white"/>
<path d="M2.25764 101.5H63.7424C64.1646 101.5 64.5921 101.736 64.9333 102.209C65.2739 102.681 65.5 103.358 65.5 104.127V156.873C65.5 157.643 65.2737 158.32 64.9329 158.791C64.5916 159.264 64.164 159.5 63.7424 159.5H2.25764C1.83546 159.5 1.40786 159.264 1.0667 158.791C0.726059 158.319 0.5 157.642 0.5 156.873V104.127C0.5 103.357 0.726352 102.68 1.06708 102.209C1.40836 101.736 1.83597 101.5 2.25764 101.5Z" fill="white" stroke="#D92739"/>
<path d="M22.5418 115.322L15.5418 122.323L12.3335 119.114L13.156 118.292L15.5418 120.672L21.7193 114.5L22.5418 115.322Z" fill="black" fill-opacity="0.55"/>
<path d="M21.0832 134.739L20.2607 133.917L16.9998 137.177L13.739 133.917L12.9165 134.739L16.1773 138L12.9165 141.261L13.739 142.083L16.9998 138.822L20.2607 142.083L21.0832 141.261L17.8223 138L21.0832 134.739Z" fill="black" fill-opacity="0.55"/>
<rect x="29" y="115" width="22" height="8" rx="4" fill="#D9D9D9"/>
<rect x="29" y="134" width="22" height="8" rx="4" fill="#D9D9D9"/>
<path d="M207 41H219V81" stroke="#EB001A" stroke-miterlimit="10"/>
<path d="M169.668 81.5H242.332C242.867 81.5 243.397 81.8009 243.813 82.3793C244.228 82.9568 244.5 83.7795 244.5 84.7097V147.29C244.5 148.222 244.227 149.044 243.812 149.621C243.396 150.2 242.866 150.5 242.332 150.5H169.668C169.133 150.5 168.603 150.199 168.187 149.621C167.772 149.043 167.5 148.221 167.5 147.29V84.7097C167.5 83.7785 167.773 82.9558 168.188 82.3786C168.604 81.8005 169.134 81.5 169.668 81.5Z" fill="white" stroke="#D92739"/>
<path d="M186 95.1429C186 92.3025 188.303 90 191.143 90H207.114C209.955 90 212.257 92.3025 212.257 95.1429V119.714C212.257 122.555 209.955 124.857 207.114 124.857H191.143C188.303 124.857 186 122.555 186 119.714V95.1429Z" fill="#D9D9D9" stroke="white" stroke-width="2"/>
<rect x="200.743" y="109.657" width="26.2571" height="34.8571" rx="5.14286" fill="#D9D9D9" stroke="white" stroke-width="2"/>
<line x1="191.143" y1="98.3286" x2="207.115" y2="98.3286" stroke="white"/>
<line x1="205.886" y1="117.986" x2="221.857" y2="117.986" stroke="white"/>
<line x1="206" y1="129.5" x2="215" y2="129.5" stroke="white"/>
<line x1="191.143" y1="104.329" x2="203.429" y2="104.329" stroke="white"/>
<line x1="206" y1="123.5" x2="222" y2="123.5" stroke="white"/>
<path d="M33 61H21V101" stroke="#EB001A" stroke-miterlimit="10"/>
<defs>
<linearGradient id="paint0_linear_4896_5336" x1="47.0031" y1="7.28867" x2="61.0469" y2="42.6334" gradientUnits="userSpaceOnUse">
<stop stop-color="#D92739"/>
<stop offset="1" stop-color="#6E3FFF"/>
</linearGradient>
</defs>
</svg>
