<svg width="167" height="141" viewBox="0 0 167 141" fill="none" xmlns="http://www.w3.org/2000/svg">
<path d="M124.14 0H3.88486C2.01545 0 0.5 1.51545 0.5 3.38485V78.6879C0.5 80.5574 2.01545 82.0728 3.88486 82.0728H124.14C126.009 82.0728 127.525 80.5574 127.525 78.6879V3.38485C127.525 1.51545 126.009 0 124.14 0Z" fill="white"/>
<path d="M3.88486 0.5H124.14C125.733 0.5 127.025 1.7916 127.025 3.38485V78.6879C127.025 80.2812 125.733 81.5728 124.14 81.5728H3.88486C2.29159 81.5728 1 80.2812 1 78.6879V3.38485C1 1.79159 2.29159 0.5 3.88486 0.5Z" stroke="black" stroke-opacity="0.13"/>
<path d="M79.9118 67.5752H46.7905C46.3377 67.5752 45.9707 67.9422 45.9707 68.395V68.3983C45.9707 68.851 46.3377 69.218 46.7905 69.218H79.9118C80.3645 69.218 80.7316 68.851 80.7316 68.3983V68.395C80.7316 67.9422 80.3645 67.5752 79.9118 67.5752Z" fill="#EB001A"/>
<path d="M79.9118 70.8804H46.7905C46.3377 70.8804 45.9707 71.2474 45.9707 71.7001V71.7034C45.9707 72.1562 46.3377 72.5232 46.7905 72.5232H79.9118C80.3645 72.5232 80.7316 72.1562 80.7316 71.7034V71.7001C80.7316 71.2474 80.3645 70.8804 79.9118 70.8804Z" fill="#EB001A"/>
<path d="M42.8139 44.9883H8.50584C7.93078 44.9883 7.4646 45.4545 7.4646 46.0295V64.3586C7.4646 64.9337 7.93078 65.3999 8.50584 65.3999H42.8139C43.3889 65.3999 43.8551 64.9337 43.8551 64.3586V46.0295C43.8551 45.4545 43.3889 44.9883 42.8139 44.9883Z" stroke="#CCCCCC" stroke-miterlimit="10"/>
<path d="M81.3993 44.9883H47.0913C46.5162 44.9883 46.05 45.4545 46.05 46.0295V64.3586C46.05 64.9337 46.5162 65.3999 47.0913 65.3999H81.3993C81.9744 65.3999 82.4406 64.9337 82.4406 64.3586V46.0295C82.4406 45.4545 81.9744 44.9883 81.3993 44.9883Z" stroke="#EB001A" stroke-miterlimit="10"/>
<path d="M119.803 44.9883H85.4949C84.9198 44.9883 84.4536 45.4545 84.4536 46.0295V64.3586C84.4536 64.9337 84.9198 65.3999 85.4949 65.3999H119.803C120.378 65.3999 120.844 64.9337 120.844 64.3586V46.0295C120.844 45.4545 120.378 44.9883 119.803 44.9883Z" stroke="#CCCCCC" stroke-miterlimit="10"/>
<path d="M12.4728 20.5635H88.7014C89.4881 20.5635 90.1261 21.2642 90.1261 22.1303C90.1261 22.9963 89.4881 23.6971 88.7014 23.6971H12.4728C11.6861 23.6971 11.0481 22.9963 11.0481 22.1303C11.0481 21.2642 11.6861 20.5635 12.4728 20.5635Z" fill="#D8D8D8"/>
<path d="M12.3802 26.0044H70.0285C70.7657 26.0044 71.3606 26.5895 71.3606 27.3101C71.3606 28.0307 70.7657 28.6158 70.0285 28.6158H12.3802C11.6431 28.6158 11.0481 28.0307 11.0481 27.3101C11.0481 26.5895 11.6431 26.0044 12.3802 26.0044Z" fill="#D8D8D8"/>
<path d="M7.63669 3.91699H23.3049C23.7181 3.91699 24.0519 4.25085 24.0519 4.66404C24.0519 5.07723 23.7181 5.41109 23.3049 5.41109H7.63669C7.2235 5.41109 6.88965 5.07723 6.88965 4.66404C6.88965 4.25085 7.2235 3.91699 7.63669 3.91699Z" fill="#D8D8D8"/>
<path d="M81.8259 4.2876H85.3694C85.5744 4.2876 85.743 4.68184 85.743 5.16112C85.743 5.6404 85.5744 6.03465 85.3694 6.03465H81.8259C81.621 6.03465 81.4524 5.6404 81.4524 5.16112C81.4524 4.68184 81.621 4.2876 81.8259 4.2876Z" fill="#D8D8D8"/>
<path d="M88.3542 4.2876H91.8978C92.1027 4.2876 92.2713 4.68184 92.2713 5.16112C92.2713 5.6404 92.1027 6.03465 91.8978 6.03465H88.3542C88.1493 6.03465 87.9807 5.6404 87.9807 5.16112C87.9807 4.68184 88.1493 4.2876 88.3542 4.2876Z" fill="#D8D8D8"/>
<path d="M94.8826 4.2876H98.4261C98.631 4.2876 98.7996 4.68184 98.7996 5.16112C98.7996 5.6404 98.631 6.03465 98.4261 6.03465H94.8826C94.6776 6.03465 94.509 5.6404 94.509 5.16112C94.509 4.68184 94.6776 4.2876 94.8826 4.2876Z" fill="#D8D8D8"/>
<path d="M101.411 4.2876H104.954C105.159 4.2876 105.328 4.68184 105.328 5.16112C105.328 5.6404 105.159 6.03465 104.954 6.03465H101.411C101.206 6.03465 101.037 5.6404 101.037 5.16112C101.037 4.68184 101.206 4.2876 101.411 4.2876Z" fill="#D8D8D8"/>
<path d="M107.939 4.2876H111.483C111.688 4.2876 111.856 4.68184 111.856 5.16112C111.856 5.6404 111.688 6.03465 111.483 6.03465H107.939C107.734 6.03465 107.566 5.6404 107.566 5.16112C107.566 4.68184 107.734 4.2876 107.939 4.2876Z" fill="#D8D8D8"/>
<path d="M114.468 4.2876H118.011C118.216 4.2876 118.385 4.68184 118.385 5.16112C118.385 5.6404 118.216 6.03465 118.011 6.03465H114.468C114.263 6.03465 114.094 5.6404 114.094 5.16112C114.094 4.68184 114.263 4.2876 114.468 4.2876Z" fill="#D8D8D8"/>
<path d="M0.5 9.34131H127.525" stroke="#CCCCCC" stroke-miterlimit="10"/>
<path d="M119.88 15H8.12002C7.50145 15 7 15.4565 7 16.0197V39.9803C7 40.5435 7.50145 41 8.12002 41H119.88C120.499 41 121 40.5435 121 39.9803V16.0197C121 15.4565 120.499 15 119.88 15Z" stroke="#CCCCCC" stroke-miterlimit="10"/>
<path d="M21.6421 33H13.4742C12.5596 33 11.8181 33.7414 11.8181 34.6561C11.8181 35.5707 12.5596 36.3121 13.4742 36.3121H21.6421C22.5567 36.3121 23.2982 35.5707 23.2982 34.6561C23.2982 33.7414 22.5567 33 21.6421 33Z" fill="#CCCCCC"/>
<path d="M41.5578 67.5752H8.43647C7.98373 67.5752 7.6167 67.9422 7.6167 68.395V68.3983C7.6167 68.851 7.98373 69.218 8.43647 69.218H41.5578C42.0105 69.218 42.3776 68.851 42.3776 68.3983V68.395C42.3776 67.9422 42.0105 67.5752 41.5578 67.5752Z" fill="#CCCCCC"/>
<path d="M41.5578 70.8804H8.43647C7.98373 70.8804 7.6167 71.2474 7.6167 71.7001V71.7034C7.6167 72.1562 7.98373 72.5232 8.43647 72.5232H41.5578C42.0105 72.5232 42.3776 72.1562 42.3776 71.7034V71.7001C42.3776 71.2474 42.0105 70.8804 41.5578 70.8804Z" fill="#CCCCCC"/>
<path d="M59.2338 62.2861H162.701C164.799 62.2861 166.5 64.1396 166.5 66.4204V136.162C166.5 138.445 164.797 140.296 162.701 140.296H59.2338C57.1356 140.296 55.4346 138.443 55.4346 136.162V66.4204C55.4346 64.1372 57.1378 62.2861 59.2338 62.2861Z" fill="white"/>
<path d="M59.2338 62.7861H162.701C164.484 62.7861 166 64.3749 166 66.4204V136.162C166 138.21 164.482 139.796 162.701 139.796H59.2338C57.4509 139.796 55.9346 138.208 55.9346 136.162V66.4204C55.9346 64.3729 57.4527 62.7861 59.2338 62.7861Z" stroke="black" stroke-opacity="0.13"/>
<line x1="55.4346" y1="92.8579" x2="166.5" y2="92.8579" stroke="black" stroke-opacity="0.13"/>
<rect x="63.0371" y="102.613" width="90.2408" height="5.61939" rx="2.80969" fill="#D9D9D9"/>
<rect x="63.0371" y="111.208" width="90.2408" height="5.61939" rx="2.80969" fill="#D9D9D9"/>
<rect x="63.0371" y="119.802" width="48.9217" height="5.61939" rx="2.80969" fill="#D9D9D9"/>
<path d="M130.073 78.9785H89.7624C88.5757 78.9785 87.6138 79.9405 87.6138 81.1271C87.6138 82.3137 88.5757 83.2757 89.7624 83.2757H130.073C131.26 83.2757 132.222 82.3137 132.222 81.1271C132.222 79.9405 131.26 78.9785 130.073 78.9785Z" fill="#CCCCCC"/>
<path d="M148.389 73H90.1486C88.962 73 88 73.962 88 75.1486C88 76.3352 88.962 77.2972 90.1486 77.2972H148.389C149.575 77.2972 150.537 76.3352 150.537 75.1486C150.537 73.962 149.575 73 148.389 73Z" fill="#CCCCCC"/>
<path d="M80.4323 78.5144C81.2157 73.6886 77.9386 69.1416 73.1128 68.3582C68.2871 67.5749 63.74 70.8519 62.9567 75.6777C62.1733 80.5035 65.4504 85.0505 70.2762 85.8339C75.1019 86.6172 79.649 83.3402 80.4323 78.5144Z" fill="url(#paint0_linear_4896_4854)"/>
<path d="M72.1647 73.1131L72.8591 74.9821C73.0575 75.5179 73.4821 75.9385 74.0179 76.1409L75.8869 76.8353C76.0377 76.8909 76.0377 77.1052 75.8869 77.1647L74.0179 77.8591C73.4821 78.0575 73.0615 78.4821 72.8591 79.0179L72.1647 80.8869C72.1091 81.0377 71.8948 81.0377 71.8353 80.8869L71.1409 79.0179C70.9425 78.4821 70.5179 78.0615 69.9821 77.8591L68.1131 77.1647C67.9623 77.1091 67.9623 76.8948 68.1131 76.8353L69.9821 76.1409C70.5179 75.9425 70.9385 75.5179 71.1409 74.9821L71.8353 73.1131C71.8909 72.9623 72.1052 72.9623 72.1647 73.1131Z" fill="white"/>
<defs>
<linearGradient id="paint0_linear_4896_4854" x1="64.375" y1="66.9399" x2="73.3414" y2="89.5061" gradientUnits="userSpaceOnUse">
<stop stop-color="#D92739"/>
<stop offset="1" stop-color="#6E3FFF"/>
</linearGradient>
</defs>
</svg>
