<svg id="Layer_1" data-name="Layer 1" xmlns="http://www.w3.org/2000/svg" width="256" height="256" viewBox="0 0 256 256">
  <title>load-error</title>
  <g>
    <circle cx="128" cy="160" r="6"/>
    <rect x="122" y="90" width="12" height="56"/>
  </g>
  <g>
    <path d="M214.44434,83.9541a1.00016,1.00016,0,0,0-1.78125.91016A93.974,93.974,0,0,1,223,128,94.98826,94.98826,0,0,1,55.18866,189H76a1,1,0,0,0,0-2H52v24a1,1,0,0,0,2,0V190.69739A97.00856,97.00856,0,0,0,214.44434,83.9541Z"/>
    <path d="M33,128A94.98826,94.98826,0,0,1,200.81134,67H180a1,1,0,0,0,0,2h24V45a1,1,0,0,0-2,0V65.30261A97.00889,97.00889,0,0,0,41.55566,172.04688a1.00016,1.00016,0,0,0,1.78125-.91016A93.981,93.981,0,0,1,33,128Z"/>
  </g>
</svg>
