<svg id="Layer_1" data-name="Layer 1" xmlns="http://www.w3.org/2000/svg" width="256" height="256" viewBox="0 0 256 256">
  <title>search-no-matches</title>
  <g>
    <polygon points="127.828 77.829 122.172 72.171 100 94.343 77.828 72.171 72.172 77.829 94.343 100 72.172 122.171 77.828 127.829 100 105.657 122.172 127.829 127.828 122.171 105.657 100 127.828 77.829"/>
    <path d="M175.45117,157.06641l-11.9707-2.00019-8.56983-8.56933a72.11617,72.11617,0,1,0-8.41406,8.41406l8.56983,8.56952,2,11.9707,52.43066,52.43115,18.38477-18.38476ZM30,100a70,70,0,1,1,70,70A70.07958,70.07958,0,0,1,30,100Zm123.59766,48.01208,7.98828,7.98786L156,161.58575l-7.98828-7.98779A72.72992,72.72992,0,0,0,153.59766,148.01208Zm9.74511,9.05921,9.57276,1.59924-14.24512,14.24494-1.59912-9.57221Zm-3.91406,17.91406,15.55664-15.55664,50.06836,50.06885L209.49707,225.0542Z"/>
    <path d="M100,162a62,62,0,1,1,62-62A62.07041,62.07041,0,0,1,100,162Zm0-122a60,60,0,1,0,60,60A60.06812,60.06812,0,0,0,100,40Z"/>
  </g>
</svg>
