<?xml version="1.0" encoding="UTF-8"?>
<svg width="1106px" height="1107px" viewBox="0 0 1106 1107" version="1.1" xmlns="http://www.w3.org/2000/svg" xmlns:xlink="http://www.w3.org/1999/xlink">
    <!-- Generator: Sketch 51.3 (57544) - http://www.bohemiancoding.com/sketch -->
    <title>right. gfx</title>
    <desc>Created with Sketch.</desc>
    <defs>
        <linearGradient x1="76.9165466%" y1="50%" x2="0%" y2="50%" id="linearGradient-1">
            <stop stop-color="#292560" offset="0%"></stop>
            <stop stop-color="#292560" stop-opacity="0" offset="100%"></stop>
        </linearGradient>
        <linearGradient x1="76.9165466%" y1="50%" x2="9.62354972%" y2="50%" id="linearGradient-2">
            <stop stop-color="#292560" offset="0%"></stop>
            <stop stop-color="#292560" stop-opacity="0" offset="100%"></stop>
        </linearGradient>
        <linearGradient x1="50.9002805%" y1="29.422808%" x2="50.9002805%" y2="75.3141845%" id="linearGradient-3">
            <stop stop-color="#292560" offset="0%"></stop>
            <stop stop-color="#FFFFFF" stop-opacity="0" offset="100%"></stop>
        </linearGradient>
    </defs>
    <g id="Page-4" stroke="none" stroke-width="1" fill="none" fill-rule="evenodd">
        <g id="Artboard-Copy-2" transform="translate(-5040.000000, -749.000000)">
            <g id="tablet" transform="translate(1594.000000, 160.000000)">
                <g id="right.-gfx" transform="translate(3446.000000, 565.000000)">
                    <g id="Group-4">
                        <polygon id="Rectangle-14" fill="url(#linearGradient-1)" opacity="0.100000001" transform="translate(544.348575, 586.348575) rotate(-45.000000) translate(-544.348575, -586.348575) " points="484.575526 -123.703513 604.121625 -123.703513 604.121625 1296.40066 484.575526 1296.40066"></polygon>
                        <path d="M586.348575,-165.703513 L586.348575,-165.703513 C619.360319,-165.703513 646.121625,-138.942207 646.121625,-105.930463 L646.121625,1194.62761 C646.121625,1227.63936 619.360319,1254.40066 586.348575,1254.40066 L586.348575,1254.40066 C553.336832,1254.40066 526.575526,1227.63936 526.575526,1194.62761 L526.575526,-105.930463 C526.575526,-138.942207 553.336832,-165.703513 586.348575,-165.703513 Z" id="Rectangle-14-Copy" fill="#00D790" transform="translate(586.348575, 544.348575) rotate(-45.000000) translate(-586.348575, -544.348575) "></path>
                    </g>
                    <g id="Group-6" transform="translate(118.567376, 407.957447)">
                        <polygon id="Rectangle-14-Copy" fill="url(#linearGradient-2)" opacity="0.100000001" transform="translate(348.372539, 392.982468) rotate(-45.000000) translate(-348.372539, -392.982468) " points="288.325569 332.906258 408.419509 332.906258 408.419509 453.058678 288.325569 453.058678"></polygon>
                        <path d="M390.800187,289.893155 L390.800187,289.893155 C423.963213,289.893155 450.847157,316.7771 450.847157,349.940125 L450.847157,349.998605 C450.847157,383.161631 423.963213,410.045575 390.800187,410.045575 L390.800187,410.045575 C357.637161,410.045575 330.753217,383.161631 330.753217,349.998605 L330.753217,349.940125 C330.753217,316.7771 357.637161,289.893155 390.800187,289.893155 Z" id="Rectangle-14-Copy-2" fill="#632CFF" transform="translate(390.800187, 349.969365) rotate(-45.000000) translate(-390.800187, -349.969365) "></path>
                        <polygon id="Rectangle-14-Copy-4" fill="url(#linearGradient-2)" opacity="0.100000001" transform="translate(458.728168, 503.066191) rotate(-45.000000) translate(-458.728168, -503.066191) " points="398.681198 442.989981 518.775138 442.989981 518.775138 563.1424 398.681198 563.1424"></polygon>
                        <path d="M500.728168,399.989981 L500.728168,399.989981 C533.891194,399.989981 560.775138,426.873925 560.775138,460.036951 L560.775138,460.09543 C560.775138,493.258456 533.891194,520.1424 500.728168,520.1424 L500.728168,520.1424 C467.565142,520.1424 440.681198,493.258456 440.681198,460.09543 L440.681198,460.036951 C440.681198,426.873925 467.565142,399.989981 500.728168,399.989981 Z" id="Rectangle-14-Copy-3" fill="#292560" transform="translate(500.728168, 460.066191) rotate(-45.000000) translate(-500.728168, -460.066191) "></path>
                        <polygon id="Rectangle-14" fill="url(#linearGradient-1)" opacity="0.100000001" transform="translate(162.810889, 203.918419) rotate(-45.000000) translate(-162.810889, -203.918419) " points="102.763919 33.9467036 222.857859 33.9467036 222.857859 373.890134 102.763919 373.890134"></polygon>
                        <path d="M204.080396,-7.28138996 L204.080396,-7.28138996 C237.243422,-7.28138996 264.127366,19.6025542 264.127366,52.7655799 L264.127366,272.61507 C264.127366,305.778096 237.243422,332.66204 204.080396,332.66204 L204.080396,332.66204 C170.91737,332.66204 144.033426,305.778096 144.033426,272.61507 L144.033426,52.7655799 C144.033426,19.6025542 170.91737,-7.28138996 204.080396,-7.28138996 Z" id="Rectangle-14-Copy" fill="#00D790" transform="translate(204.080396, 162.690325) rotate(-45.000000) translate(-204.080396, -162.690325) "></path>
                    </g>
                    <g id="Group-2-Copy" transform="translate(337.000000, 91.000000)">
                        <polygon id="Rectangle-13-Copy-4" fill="url(#linearGradient-3)" opacity="0.100000001" style="mix-blend-mode: multiply;" transform="translate(193.000000, 229.500000) rotate(45.000000) translate(-193.000000, -229.500000) " points="66 84 320 137.130387 320 375 66 374.865125"></polygon>
                        <g id="Group-3" transform="translate(274.500000, 149.000000) rotate(-45.000000) translate(-274.500000, -149.000000) translate(192.000000, 22.000000)">
                            <path d="M31.7307692,3.63797881e-12 L133.269231,3.63797881e-12 C150.793651,3.63475767e-12 165,14.2149592 165,31.75 L165,193.675 C165,211.210041 150.793651,225.425 133.269231,225.425 L31.7307692,225.425 C14.2063493,225.425 2.14612248e-15,211.210041 0,193.675 L0,31.75 C-2.14612248e-15,14.2149592 14.2063493,3.65247981e-12 31.7307692,3.63797881e-12 Z" id="Rectangle-9" fill="#00D790"></path>
                            <path d="M0,93.6625 L165,93.6625 L165,222.25 C165,239.785041 150.793651,254 133.269231,254 L31.7307692,254 C14.2063493,254 2.14612248e-15,239.785041 0,222.25 L0,93.6625 Z" id="Rectangle-9-Copy" fill="#632CFF"></path>
                        </g>
                    </g>
                </g>
            </g>
        </g>
    </g>
</svg>